<?xml version="1.0" encoding="utf-8"?>
<!-- Generator: Adobe Illustrator 21.1.0, SVG Export Plug-In . SVG Version: 6.00 Build 0)  -->
<svg version="1.1" id="Layer_1" xmlns="http://www.w3.org/2000/svg" xmlns:xlink="http://www.w3.org/1999/xlink" x="0px" y="0px"
	 viewBox="0 0 379.2 81.2" style="enable-background:new 0 0 379.2 81.2;" xml:space="preserve">
<style type="text/css">
	.st0{fill:#0081FF;}
	.st1{fill:#FFFFFF;}
	.st2{fill:#F6921E;}
</style>
<g>
	<path class="st0" d="M94.2,37.9c1.6,0.9,2.9,2.1,3.9,3.8c0.9,1.7,1.4,3.7,1.4,6.1v15.6H94V48.7c0-2.4-0.6-4.2-1.8-5.4
		c-1.2-1.3-2.8-1.9-4.8-1.9s-3.7,0.6-4.9,1.9c-1.2,1.3-1.8,3.1-1.8,5.4v14.8h-5.5V37h5.5v3c0.9-1.1,2-1.9,3.4-2.5
		c1.4-0.6,2.9-0.9,4.4-0.9C90.7,36.6,92.5,37,94.2,37.9z"/>
	<path class="st0" d="M107.4,43.1c1.1-2,2.6-3.6,4.5-4.8c1.9-1.1,4-1.7,6.3-1.7c2.1,0,3.9,0.4,5.4,1.2c1.6,0.8,2.8,1.8,3.7,3V37h5.5
		v26.4h-5.5v-3.9c-0.9,1.2-2.2,2.3-3.8,3.1c-1.6,0.8-3.4,1.2-5.5,1.2c-2.3,0-4.4-0.6-6.2-1.8c-1.9-1.2-3.4-2.8-4.5-4.9
		c-1.1-2.1-1.7-4.5-1.7-7.1C105.8,47.5,106.3,45.1,107.4,43.1z M126.3,45.5c-0.8-1.3-1.7-2.4-3-3.1c-1.2-0.7-2.5-1.1-3.9-1.1
		s-2.7,0.3-3.9,1c-1.2,0.7-2.2,1.7-3,3c-0.8,1.3-1.1,2.9-1.1,4.7c0,1.8,0.4,3.4,1.1,4.8c0.8,1.4,1.7,2.4,3,3.1
		c1.2,0.7,2.5,1.1,3.9,1.1c1.4,0,2.7-0.4,3.9-1.1c1.2-0.7,2.2-1.7,3-3.1c0.8-1.4,1.1-3,1.1-4.8C127.4,48.4,127,46.8,126.3,45.5z"/>
	<path class="st0" d="M150.6,37.8c1.6-0.8,3.4-1.2,5.4-1.2c2.3,0,4.4,0.6,6.3,1.7c1.9,1.1,3.4,2.7,4.5,4.8c1.1,2,1.6,4.4,1.6,7.1
		c0,2.7-0.5,5-1.6,7.1c-1.1,2.1-2.6,3.7-4.5,4.9c-1.9,1.2-4,1.8-6.3,1.8c-2,0-3.8-0.4-5.4-1.2c-1.6-0.8-2.8-1.8-3.8-3V76h-5.5V37
		h5.5v3.9C147.7,39.7,149,38.7,150.6,37.8z M161.8,45.4c-0.8-1.3-1.7-2.3-3-3c-1.2-0.7-2.6-1-4-1c-1.4,0-2.7,0.4-3.9,1.1
		c-1.2,0.7-2.2,1.7-3,3.1c-0.8,1.3-1.1,2.9-1.1,4.8c0,1.8,0.4,3.4,1.1,4.8c0.8,1.4,1.7,2.4,3,3.1c1.2,0.7,2.5,1.1,3.9,1.1
		c1.4,0,2.7-0.4,4-1.1c1.2-0.7,2.2-1.8,3-3.1c0.8-1.4,1.1-3,1.1-4.8C162.9,48.3,162.5,46.7,161.8,45.4z"/>
	<path class="st1" d="M181.3,62.5c-2.1-0.9-3.7-2.2-4.8-3.8c-1.2-1.7-1.8-3.6-1.8-5.8h6.7c0.1,1.6,0.8,3,2,4.1
		c1.2,1.1,2.8,1.6,4.9,1.6c2.2,0,3.8-0.5,5.1-1.6c1.2-1,1.8-2.4,1.8-4c0-1.3-0.4-2.3-1.1-3.1c-0.8-0.8-1.7-1.4-2.8-1.9
		c-1.1-0.4-2.7-0.9-4.6-1.4c-2.5-0.7-4.5-1.3-6.1-2c-1.6-0.7-2.9-1.7-4-3.2c-1.1-1.4-1.7-3.3-1.7-5.7c0-2.2,0.5-4.1,1.7-5.8
		c1.1-1.6,2.6-2.9,4.6-3.8c2-0.9,4.3-1.3,6.9-1.3c3.7,0,6.7,0.9,9.1,2.8c2.4,1.9,3.7,4.4,3.9,7.6H194c-0.1-1.4-0.8-2.6-2-3.6
		c-1.2-1-2.8-1.5-4.8-1.5c-1.8,0-3.3,0.5-4.4,1.4c-1.1,0.9-1.7,2.2-1.7,4c0,1.2,0.4,2.1,1.1,2.9c0.7,0.8,1.6,1.3,2.7,1.8
		c1.1,0.4,2.6,0.9,4.5,1.4c2.5,0.7,4.6,1.4,6.2,2.1c1.6,0.7,3,1.8,4.1,3.2c1.1,1.4,1.7,3.4,1.7,5.8c0,1.9-0.5,3.8-1.6,5.5
		c-1,1.7-2.6,3.1-4.6,4.2c-2,1-4.4,1.6-7.1,1.6C185.6,63.8,183.3,63.4,181.3,62.5z"/>
	<path class="st1" d="M228.8,37.9c1.6,0.9,2.8,2.1,3.7,3.8c0.9,1.7,1.4,3.7,1.4,6.1v15.6h-5.4V48.7c0-2.4-0.6-4.2-1.8-5.4
		c-1.2-1.3-2.8-1.9-4.8-1.9s-3.7,0.6-4.9,1.9c-1.2,1.3-1.8,3.1-1.8,5.4v14.8h-5.5V27.9h5.5v12.1c0.9-1.1,2.1-2,3.5-2.6
		c1.4-0.6,3-0.9,4.7-0.9C225.4,36.6,227.2,37,228.8,37.9z"/>
	<path class="st1" d="M246.7,62.2c-2-1.1-3.6-2.7-4.8-4.8c-1.2-2.1-1.7-4.5-1.7-7.2c0-2.7,0.6-5.1,1.8-7.2c1.2-2.1,2.8-3.7,4.8-4.8
		c2-1.1,4.3-1.7,6.9-1.7c2.5,0,4.8,0.6,6.9,1.7c2,1.1,3.7,2.7,4.8,4.8c1.2,2.1,1.8,4.5,1.8,7.2s-0.6,5.1-1.8,7.2
		c-1.2,2.1-2.9,3.7-5,4.8c-2.1,1.1-4.4,1.7-6.9,1.7C251,63.9,248.8,63.3,246.7,62.2z M257.5,58.1c1.2-0.7,2.2-1.7,3-3
		c0.8-1.3,1.2-3,1.2-4.9s-0.4-3.5-1.1-4.9c-0.7-1.3-1.7-2.3-2.9-3c-1.2-0.7-2.5-1-3.9-1s-2.7,0.3-3.9,1c-1.2,0.7-2.2,1.7-2.9,3
		c-0.7,1.3-1.1,3-1.1,4.9c0,2.8,0.7,5,2.2,6.6c1.5,1.6,3.3,2.3,5.5,2.3C254.9,59.1,256.2,58.8,257.5,58.1z"/>
	<path class="st1" d="M278.6,62.2c-2-1.1-3.6-2.7-4.8-4.8c-1.2-2.1-1.7-4.5-1.7-7.2c0-2.7,0.6-5.1,1.8-7.2c1.2-2.1,2.8-3.7,4.8-4.8
		c2-1.1,4.3-1.7,6.9-1.7c2.5,0,4.8,0.6,6.9,1.7c2,1.1,3.7,2.7,4.8,4.8c1.2,2.1,1.8,4.5,1.8,7.2s-0.6,5.1-1.8,7.2
		c-1.2,2.1-2.9,3.7-5,4.8c-2.1,1.1-4.4,1.7-6.9,1.7C282.8,63.9,280.6,63.3,278.6,62.2z M289.3,58.1c1.2-0.7,2.2-1.7,3-3
		c0.8-1.3,1.2-3,1.2-4.9s-0.4-3.5-1.1-4.9c-0.7-1.3-1.7-2.3-2.9-3s-2.5-1-3.9-1c-1.4,0-2.7,0.3-3.9,1s-2.2,1.7-2.9,3
		c-0.7,1.3-1.1,3-1.1,4.9c0,2.8,0.7,5,2.2,6.6c1.5,1.6,3.3,2.3,5.5,2.3C286.7,59.1,288.1,58.8,289.3,58.1z"/>
	<path class="st1" d="M312.1,41.5v14.6c0,1,0.2,1.7,0.7,2.1c0.5,0.4,1.3,0.6,2.4,0.6h3.4v4.6h-4.3c-2.5,0-4.4-0.6-5.7-1.7
		c-1.3-1.2-2-3-2-5.6V41.5h-3.1V37h3.1v-6.6h5.5V37h6.4v4.5H312.1z"/>
	<path class="st1" d="M348.8,52.3h-20.2c0.2,2.1,0.9,3.8,2.4,5.1c1.4,1.3,3.1,1.9,5.2,1.9c2.9,0,5-1.2,6.2-3.7h5.9
		c-0.8,2.4-2.2,4.4-4.3,6c-2.1,1.6-4.7,2.3-7.8,2.3c-2.5,0-4.8-0.6-6.8-1.7c-2-1.1-3.6-2.7-4.7-4.8c-1.1-2.1-1.7-4.5-1.7-7.2
		c0-2.7,0.6-5.1,1.7-7.2c1.1-2.1,2.7-3.7,4.7-4.8c2-1.1,4.3-1.7,6.9-1.7c2.5,0,4.7,0.5,6.7,1.6c2,1.1,3.5,2.6,4.6,4.6
		c1.1,2,1.6,4.2,1.6,6.8C349,50.6,348.9,51.5,348.8,52.3z M343.3,47.9c0-2-0.8-3.6-2.2-4.8c-1.4-1.2-3.2-1.8-5.2-1.8
		c-1.9,0-3.5,0.6-4.8,1.8c-1.3,1.2-2.1,2.8-2.4,4.9H343.3z"/>
	<path class="st1" d="M364.2,37.7c1.3-0.8,2.9-1.1,4.7-1.1v5.7h-1.4c-2.1,0-3.8,0.5-4.9,1.6c-1.1,1.1-1.7,3-1.7,5.7v13.9h-5.5V37
		h5.5v3.8C361.8,39.5,362.9,38.5,364.2,37.7z"/>
</g>
<path class="st1" d="M61.4,66.2h-46c-1.9,0-3.5-1.5-3.5-3.5l-0.1-10.5l7-0.1l0.1,7h39.1V39.9H14.8c-1.9,0-3.5-1.6-3.5-3.5V12.1
	c0-1.9,1.6-3.5,3.5-3.5h47.2c1.9,0,3.5,1.6,3.5,3.5v10.3h-7v-6.8H18.3v17.4h43.1c1.9,0,3.5,1.6,3.5,3.5v26.3
	C64.9,64.6,63.4,66.2,61.4,66.2z"/>
<rect x="25.1" y="21.9" class="st0" width="17.2" height="4.4"/>
<rect x="47" y="21.9" class="st2" width="4.4" height="4.6"/>
<rect x="25.3" y="48" class="st0" width="17.2" height="4.4"/>
<rect x="47.1" y="48" class="st2" width="4.4" height="4.6"/>
</svg>
