<?xml version="1.0" encoding="utf-8"?>
<!-- Generator: Adobe Illustrator 21.1.0, SVG Export Plug-In . SVG Version: 6.00 Build 0)  -->
<svg version="1.1" id="Layer_1" xmlns="http://www.w3.org/2000/svg" xmlns:xlink="http://www.w3.org/1999/xlink" x="0px" y="0px"
     viewBox="0 0 1046 818">
    <g stroke="none" stroke-width="1" fill="none" fill-rule="evenodd">
        <g fill-rule="nonzero">
            <g fill="#000000" fill-opacity="0">
                <rect x="0" y="0" width="1046" height="818"></rect>
            </g>
            <g transform="translate(43.000000, 118.000000)">
                <g transform="translate(479.500000, 291.000000) scale(-1, 1) rotate(-180.000000) translate(-479.500000, -291.000000) translate(0.000000, 0.000000)"
                   fill="#293145">
                    <path d="M657.950174,289.08351 C657.950174,296.234592 663.747921,302.020839 670.903108,302.020839 C678.050119,302.020839 683.847865,296.234592 683.847865,289.08351 C683.847865,281.932428 678.050119,276.146181 670.903108,276.146181 C663.747921,276.146181 657.950174,281.932428 657.950174,289.08351 M340.464274,209.449061 C340.464274,202.306152 334.666528,196.511732 327.519517,196.511732 C320.36433,196.511732 314.566583,202.306152 314.566583,209.449061 C314.566583,216.600143 320.36433,222.394563 327.519517,222.394563 C334.666528,222.394563 340.464274,216.600143 340.464274,209.449061 M324.436654,354.244169 C324.436654,361.395251 330.2344,367.181498 337.38141,367.181498 C344.528421,367.181498 350.334345,361.395251 350.334345,354.244169 C350.334345,347.093087 344.528421,341.298667 337.38141,341.298667 C330.2344,341.298667 324.436654,347.093087 324.436654,354.244169 M189.608385,289.08351 C189.608385,296.234592 195.406132,302.020839 202.553142,302.020839 C209.70833,302.020839 215.506076,296.234592 215.506076,289.08351 C215.506076,281.932428 209.70833,276.146181 202.553142,276.146181 C195.406132,276.146181 189.608385,281.932428 189.608385,289.08351 M519.335789,190.790867 C519.335789,197.941949 525.133536,203.736368 532.280546,203.736368 C539.435734,203.736368 545.23348,197.941949 545.23348,190.790867 C545.23348,183.647958 539.435734,177.853538 532.280546,177.853538 C525.133536,177.853538 519.335789,183.647958 519.335789,190.790867 M849.504771,256.114979 C831.727196,255.820763 804.014132,258.133627 767.019767,273.432856 C765.948533,263.617486 764.206756,253.998259 761.827145,244.632385 C738.644337,153.458133 655.840416,85.8129836 557.507694,85.8129836 C544.620178,85.8129836 532.010693,87.0388833 519.744657,89.2700209 C519.523869,89.3108842 519.319435,89.3599202 519.106823,89.3926109 C530.244384,107.674863 539.190413,129.896339 544.145892,156.857961 C558.178237,161.753388 568.244564,175.091177 568.244564,190.790867 C568.244564,210.64227 552.151525,226.742421 532.280546,226.742421 C512.417745,226.742421 496.308351,210.64227 496.308351,190.790867 C496.308351,177.453077 503.586199,165.815202 514.380311,159.612149 C509.972715,135.674413 487.018873,33.066603 356.483717,29.2826591 C300.624189,27.672644 251.159354,57.249519 221.336532,99.8863129 C215.391593,108.394057 170.767754,172.206226 202.716689,253.140129 C222.505894,253.230028 238.51716,269.281142 238.51716,289.08351 C238.51716,308.943086 222.415943,325.026891 202.553142,325.026891 C182.682164,325.026891 166.589124,308.943086 166.589124,289.08351 C166.589124,279.815708 170.097211,271.373345 175.85407,264.998666 C167.169717,242.997852 162.369608,219.051943 162.369608,194.002724 C162.369608,170.114024 166.736317,147.246907 174.668353,126.09605 C93.5735004,131.710671 29.2994715,199.396683 29.2994715,281.850701 C29.2994715,353.247104 77.5049932,413.561372 143.071045,432.105149 C153.309096,434.998273 240.65145,462.523809 309.43938,376.874279 C304.42666,370.695744 301.417393,362.825467 301.417393,354.244169 C301.417393,334.384593 317.518609,318.292615 337.38141,318.292615 C357.252389,318.292615 373.353606,334.384593 373.353606,354.244169 C373.353606,374.095572 357.252389,390.18755 337.38141,390.18755 C336.931656,390.18755 336.490079,390.171205 336.048501,390.154859 C302.693061,436.314072 248.673438,466.577451 187.637642,467.255782 C215.71051,518.146968 269.918212,552.717341 332.066128,552.717341 C375.545137,552.717341 415.11537,535.775406 444.60292,508.184489 C451.970719,501.286759 458.717039,493.74339 464.727397,485.595242 C484.917292,458.26585 497.853872,424.496398 496.880766,388.005448 C493.037408,243.962226 360.62146,225.802564 359.632,225.630938 C353.711593,237.358713 341.56004,245.400615 327.519517,245.400615 C307.656716,245.400615 291.547322,229.308637 291.547322,209.449061 C291.547322,189.597658 307.656716,173.50568 327.519517,173.50568 C342.688515,173.50568 355.657804,182.896072 360.948554,196.176653 C423.570757,210.2745 465.880404,240.921995 495.114457,282.921321 C552.233298,365.023914 513.783364,465.833738 492.612185,496.906211 C516.612729,512.916462 587.592191,517.027312 622.239655,496.914384 C607.528589,482.604047 595.941273,464.67322 589.162244,443.849269 C571.237477,388.871751 591.844417,330.469886 636.010324,297.869125 C635.298894,295.057728 634.930913,292.115569 634.930913,289.08351 C634.930913,269.232106 651.023953,253.140129 670.903108,253.140129 C690.765909,253.140129 706.867126,269.232106 706.867126,289.08351 C706.867126,308.943086 690.765909,325.026891 670.903108,325.026891 C664.835509,325.026891 659.135891,323.531293 654.131348,320.88335 C619.320338,346.096022 603.00651,391.78122 617.014323,434.777611 C624.545669,457.89808 650.467892,504.425063 708.592548,503.517897 C755.301614,502.782357 771.296525,451.498884 771.296525,451.498884 C771.296525,451.498884 863.177312,414.403157 907.179672,360.602502 C906.87711,360.488085 906.574548,360.390013 906.28834,360.251078 C897.350489,356.091191 894.725557,342.818783 900.425175,330.608821 C906.124793,318.39886 917.990139,311.885246 926.936168,316.053305 C927.663952,316.396557 928.334496,316.821535 928.996862,317.279205 C931.899824,298.514766 927.688484,257.414433 849.504771,256.114979 M956.783522,327.683007 C940.118068,403.860419 821.922544,461.044556 794.225835,473.47518 C786.702666,489.951273 762.023401,532.800556 708.592548,532.800556 C690.626894,532.800556 671.213848,527.643604 650.844051,517.574881 C650.688681,517.648435 650.525134,517.697471 650.369764,517.762852 C621.7899,529.793015 590.41338,536.453737 557.507694,536.453737 C527.815709,536.453737 499.366683,530.994397 473.092833,521.0973 C437.684876,558.560796 387.582207,582 332.066128,582 C252.206056,582 183.491722,533.544269 153.717964,464.517939 C66.5309796,449.373991 0,373.253788 0,281.850701 C0,179.586143 83.2454981,96.3965849 185.568771,96.3965849 C186.648182,96.3965849 187.711238,96.4619662 188.79065,96.4701389 C222.481362,38.8365046 285.013614,0 356.483717,0 C413.299996,0 464.490253,24.526168 500.020871,63.5342985 C518.444457,58.9902967 537.693957,56.5303245 557.507694,56.5303245 C669.365765,56.5303245 763.593454,133.377894 790.137156,237.023633 C808.160052,230.371084 828.6198,226.83232 849.496593,226.83232 L849.504771,226.83232 C890.669588,226.83232 924.965424,240.112901 943.626154,263.274234 C957.650322,280.690183 962.196933,302.960695 956.783522,327.683007"></path>
                </g>
                <g transform="translate(479.459646, 291.031688) scale(-1, 1) rotate(-180.000000) translate(-479.459646, -291.031688) translate(29.301248, 29.283021)"
                   fill="#BAE5F9">
                    <path d="M871.125704,301.388815 C865.426085,313.598777 868.051017,326.871185 876.988869,331.031071 C877.275076,331.170007 877.577639,331.268079 877.872023,331.382496 C833.869663,385.18315 741.997053,422.278877 741.997053,422.278877 C741.997053,422.278877 726.002142,473.562351 679.293077,474.297891 C621.168421,475.205057 595.246198,428.678074 587.714852,405.557605 C573.707039,362.561213 590.020867,316.876015 624.831877,291.663344 C629.828242,294.311287 635.52786,295.806885 641.603637,295.806885 C661.458261,295.806885 677.567655,279.72308 677.567655,259.863504 C677.567655,240.0121 661.458261,223.920123 641.603637,223.920123 C621.724481,223.920123 605.623264,240.0121 605.623264,259.863504 C605.623264,262.895562 605.999423,265.837722 606.710853,268.649119 C562.544946,301.24988 541.938005,359.651745 559.862773,414.629263 C566.641802,435.453213 578.229117,453.384041 592.932006,467.694377 C558.284543,487.807306 487.305081,483.696456 463.312714,467.686205 C484.483892,436.613732 522.933827,335.795735 465.814985,253.701314 C436.580933,211.701988 394.271286,181.054494 331.640906,166.956647 C326.350155,153.676066 313.389044,144.285674 298.211869,144.285674 C278.349068,144.285674 262.247851,160.377651 262.247851,180.229055 C262.247851,200.080459 278.349068,216.180609 298.211869,216.180609 C312.260569,216.180609 324.412122,208.138706 330.332528,196.410932 C331.313811,196.582558 463.737937,214.74222 467.573117,358.777269 C468.5544,395.276392 455.609643,429.045844 435.419748,456.375236 C429.40939,464.515211 422.663071,472.066753 415.295272,478.964482 C385.815898,506.5554 346.237489,523.497335 302.766657,523.497335 C240.618741,523.497335 186.411039,488.926961 158.338171,438.035776 C219.373966,437.357444 273.393589,407.094066 306.740852,360.934853 C307.190607,360.951198 307.632184,360.967544 308.081939,360.967544 C327.94474,360.967544 344.045957,344.875566 344.045957,325.024163 C344.045957,305.164586 327.94474,289.072609 308.081939,289.072609 C288.219138,289.072609 272.117921,305.164586 272.117921,325.024163 C272.117921,333.605461 275.127189,341.475737 280.139909,347.654272 C211.343801,433.303803 124.001447,405.778266 113.771573,402.885143 C48.1973444,384.341366 0,324.027097 0,252.630695 C0,170.176677 64.2740289,102.490665 145.368882,96.8760436 C137.436845,118.018728 133.070137,140.894018 133.070137,164.782718 C133.070137,189.831936 137.870245,213.777845 146.554599,235.77866 C140.789562,242.145166 137.281476,250.595702 137.281476,259.863504 C137.281476,279.72308 153.382692,295.806885 173.253671,295.806885 C193.116472,295.806885 209.217688,279.72308 209.217688,259.863504 C209.217688,240.061136 193.206423,224.010022 173.417218,223.920123 C141.468283,142.98622 186.092122,79.174051 192.037061,70.6663066 C221.859883,28.0295127 271.31654,-1.54736226 327.176068,0.062652766 C457.711224,3.84659671 480.673244,106.446234 485.080839,130.392143 C474.286728,136.595196 467.00888,148.233071 467.00888,161.570861 C467.00888,181.422264 483.118274,197.522414 502.972897,197.522414 C522.843876,197.522414 538.945092,181.422264 538.945092,161.570861 C538.945092,145.871171 528.870588,132.533381 514.84642,127.637955 C509.882764,100.676333 500.936735,78.4548564 489.799175,60.1726046 C490.019963,60.1317413 490.224397,60.0908779 490.437008,60.0500146 C502.703044,57.8188771 515.31253,56.5929773 528.200045,56.5929773 C626.540945,56.5929773 709.344865,124.238126 732.527673,215.404206 C734.907284,224.778252 736.649062,234.397479 737.720295,244.21285 C774.71466,228.913621 802.427724,226.600757 820.197122,226.894973 C898.389013,228.194426 902.600352,269.294759 899.689213,288.059198 C899.035024,287.601529 898.364481,287.176551 897.628519,286.833299 C888.68249,282.665239 876.817144,289.178853 871.125704,301.388815"></path>
                </g>
                <g transform="translate(695.702757, 299.555804) scale(-1, 1) rotate(-180.000000) translate(-695.702757, -299.555804) translate(667.245553, 263.702322)"
                   fill="#8CBECD">
                    <path d="M56.9144073,35.9515538 C56.9144073,54.5607122 42.7675791,69.868114 24.622023,71.7069636 C33.7234218,65.1933495 39.6601833,54.5361942 39.6601833,42.4896859 C39.6601833,22.6382823 23.5507892,6.54630475 3.68798818,6.54630475 C2.44502985,6.54630475 1.21024889,6.6035134 0,6.72610338 C5.91222938,2.50083552 13.1328359,0 20.9503896,0 C40.8050133,0 56.9144073,16.0919776 56.9144073,35.9515538"></path>
                </g>
                <g transform="translate(552.317969, 428.676422) scale(-1, 1) rotate(-180.000000) translate(-552.317969, -428.676422) translate(519.113810, 362.011993)"
                   fill="#8CBECD">
                    <path d="M66.4083192,97.565276 C66.4083192,116.182607 52.261491,131.490009 34.1241123,133.328858 C43.2091564,126.807072 49.1459178,116.149916 49.1459178,104.111581 C49.1459178,88.4118911 39.0714135,75.0741016 25.0390683,70.1705026 C20.0835897,43.2170531 11.1375607,20.987404 0,2.71332481 C0.212611292,2.67246149 0.425222583,2.6234255 0.637833875,2.58256217 C6.85262548,1.46290705 13.1491907,0.588431887 19.5275294,0 C29.610211,17.5385393 37.6894401,38.5259433 42.3178244,63.6323705 C56.3419923,68.5277969 66.4083192,81.8655863 66.4083192,97.565276"></path>
                </g>
                <g transform="translate(312.701510, 73.313849) scale(-1, 1) rotate(-180.000000) translate(-312.701510, -73.313849) translate(187.616563, 29.250925)"
                   fill="#8CBECD">
                    <path d="M166.000355,72.7857554 C196.739041,72.7857554 225.523339,64.302529 250.169894,49.5835592 C221.532789,73.6111946 184.652907,88.1258478 144.420309,88.1258478 C82.2723925,88.1258478 28.0728679,53.5554744 0,2.66428882 C9.98455335,2.55804418 19.7892048,1.63453302 29.3485356,0 C58.9914561,43.8626936 109.167721,72.7857554 166.000355,72.7857554"></path>
                </g>
                <g transform="translate(470.578984, 247.664998) scale(-1, 1) rotate(-180.000000) translate(-470.578984, -247.664998) translate(318.921715, 71.496230)"
                   fill="#8CBECD">
                    <path d="M30.1662713,0 C45.3352693,0 58.3045581,9.3903922 63.5953083,22.670973 C126.217511,36.7688203 168.535335,67.4244871 197.761211,109.41564 C254.888229,191.518234 216.430118,292.336231 195.267117,323.400531 C214.034152,335.929226 261.560953,341.167905 297.950193,333.224074 C299.683793,335.120133 301.466457,336.967155 303.31454,338.748796 C268.667076,358.861725 197.687614,354.759047 173.687071,338.740623 C194.858249,307.676323 233.308183,206.858326 176.189342,124.763905 C146.955289,82.7645795 104.645642,52.1089127 42.0234395,38.0110654 C36.7326893,24.7304846 23.7634005,15.3400924 8.5944026,15.3400924 C5.63419923,15.3400924 2.75576943,15.7078623 0,16.3861935 C6.41104818,6.52178675 17.5240768,0 30.1662713,0"></path>
                </g>
                <g transform="translate(361.837714, 243.614675) scale(-1, 1) rotate(-180.000000) translate(-361.837714, -243.614675) translate(328.772569, 208.186171)"
                   fill="#8CBECD">
                    <path d="M30.1662713,0 C50.0290724,0 66.1302891,16.0919776 66.1302891,35.9433811 C66.1302891,52.8444526 54.4775548,66.9995085 38.7606739,70.8570064 C42.4323074,65.2260402 44.5584203,58.5162821 44.5584203,51.2916462 C44.5584203,31.4402427 28.4572037,15.3400924 8.5944026,15.3400924 C5.63419923,15.3400924 2.75576943,15.7078623 0,16.3861935 C6.41104818,6.52178675 17.5240768,0 30.1662713,0"></path>
                </g>
                <g transform="translate(682.051730, 169.775495) scale(-1, 1) rotate(-180.000000) translate(-682.051730, -169.775495) translate(612.035013, 78.451684)"
                   fill="#8CBECD">
                    <path d="M26.5807777,98.5541685 C34.1284785,121.674638 60.042524,168.20162 118.159003,167.294455 C126.385424,167.163692 133.63874,165.47195 140.033434,162.766798 C130.171541,173.252328 116.041067,182.323986 96.5953115,182.634547 C38.4624779,183.541713 12.5402551,137.01473 5.00890892,113.894261 C-8.99890426,70.9060424 7.32310106,25.2126718 42.125934,0 C43.2298773,0.588431887 44.3747073,1.11148245 45.5440694,1.57732436 C23.6941705,27.5909174 15.3042019,63.9429318 26.5807777,98.5541685"></path>
                </g>
                <g transform="translate(156.637062, 289.006527) scale(-1, 1) rotate(-180.000000) translate(-156.637062, -289.006527) translate(29.246101, 143.416646)"
                   fill="#8CBECD">
                    <path d="M21.5800461,119.100249 C21.5800461,190.496651 69.7855678,250.810919 135.351619,269.362869 C143.340897,271.618525 198.317271,288.887366 254.781924,255.608274 C191.521887,308.86136 122.783021,287.252833 113.771573,284.702962 C48.2055217,266.159184 0,205.836743 0,134.440341 C0,77.2643759 30.9267656,27.1986295 76.9162234,0 C43.086496,28.6533639 21.5800461,71.404575 21.5800461,119.100249"></path>
                </g>
                <g transform="translate(232.305721, 402.046843) scale(-1, 1) rotate(-180.000000) translate(-232.305721, -402.046843) translate(191.258857, 273.372318)"
                   fill="#8CBECD">
                    <path d="M51.6167184,33.238229 C45.6717795,41.754146 1.039763,105.566315 32.9968756,186.500218 C52.7860805,186.590117 68.7973462,202.641231 68.7973462,222.443599 C68.7973462,239.336498 57.1364346,253.499726 41.4277311,257.349051 C45.0911872,251.718085 47.2254774,245.008327 47.2254774,237.783691 C47.2254774,217.981324 31.2142117,201.938382 11.4168295,201.84031 C-20.5321057,120.906408 24.0917334,57.0942384 30.0448496,48.586494 C43.6928591,29.0701698 61.4786113,12.299861 82.0937293,0 C70.5064139,9.69278081 60.235653,20.9220227 51.6167184,33.238229"></path>
                </g>
                <g transform="translate(774.493051, 197.456545) scale(-1, 1) rotate(-180.000000) translate(-774.493051, -197.456545) translate(736.227107, 159.212559)"
                   fill="#293145">
                    <path d="M76.5318877,38.2399 C76.5318877,17.1217334 59.400324,0 38.2618551,0 C17.1315637,0 0,17.1217334 0,38.2399 C0,59.3580666 17.1315637,76.4879727 38.2618551,76.4879727 C59.400324,76.4879727 76.5318877,59.3580666 76.5318877,38.2399"></path>
                </g>
                <g transform="translate(791.035121, 195.532210) scale(-1, 1) rotate(-180.000000) translate(-791.035121, -195.532210) translate(777.550659, 182.059571)"
                   fill="#FFFFFF">
                    <path d="M26.9689246,13.4685521 C26.9689246,6.03142685 20.9340349,0 13.4926397,0 C6.03488974,0 0,6.03142685 0,13.4685521 C0,20.91385 6.03488974,26.9452768 13.4926397,26.9452768 C20.9340349,26.9452768 26.9689246,20.91385 26.9689246,13.4685521"></path></g>
            </g>
        </g>
    </g>
</svg>